<svg width="8" height="15" viewBox="0 0 8 15" fill="none" xmlns="http://www.w3.org/2000/svg">
<path d="M7.60816 4.66173V10.4175C7.60816 10.6829 7.39392 10.8971 7.12851 10.8971C6.86311 10.8971 6.64887 10.6829 6.64887 10.4175V4.66173C6.64887 3.16204 5.43057 1.94374 3.93089 1.94374C2.4312 1.94374 1.2129 3.16204 1.2129 4.66173V12.0163C1.2129 12.9852 2.00272 13.775 2.9716 13.775C3.94048 13.775 4.73029 12.9852 4.73029 12.0163V5.14137C4.73029 4.7001 4.37216 4.34196 3.93089 4.34196C3.48961 4.34196 3.13148 4.7001 3.13148 5.14137V11.3767C3.13148 11.6421 2.91724 11.8564 2.65184 11.8564C2.38643 11.8564 2.17219 11.6421 2.17219 11.3767V5.14137C2.17219 4.17249 2.96201 3.38268 3.93089 3.38268C4.89977 3.38268 5.68958 4.17249 5.68958 5.14137V12.0163C5.68958 13.516 4.47129 14.7343 2.9716 14.7343C1.47191 14.7343 0.253616 13.516 0.253616 12.0163V4.66173C0.253616 2.63443 1.90359 0.984455 3.93089 0.984455C5.95818 0.984455 7.60816 2.63443 7.60816 4.66173Z" fill="#A1A4AC"/>
</svg>
