<svg width="16" height="15" viewBox="0 0 16 15" fill="none" xmlns="http://www.w3.org/2000/svg">
<path d="M5.3489 12.7659H3.4392C3.01732 12.7659 2.67532 12.4239 2.67532 12.002V4.3632M2.67532 4.3632H1.5295C1.10763 4.3632 0.765625 4.0212 0.765625 3.59933V1.68963C0.765625 1.26775 1.10763 0.925751 1.5295 0.925751H13.7516C14.1734 0.925751 14.5154 1.26775 14.5154 1.68963V3.59933C14.5154 4.0212 14.1734 4.3632 13.7516 4.3632H12.6057M2.67532 4.3632H12.6057M12.6057 4.3632V12.002C12.6057 12.4239 12.2637 12.7659 11.8419 12.7659H10.3141M7.64053 6.2729V13.1478M7.64053 13.1478L5.3489 10.4742M7.64053 13.1478L9.93217 10.4742" stroke="#313131" stroke-width="1.14582"/>
</svg>
