<svg width="21" height="31" viewBox="0 0 21 31" fill="none" xmlns="http://www.w3.org/2000/svg">
<path d="M7.82603 2.96893H13.6132C14.4143 2.96893 15.06 2.32324 15.06 1.52211C15.06 0.720978 14.4143 0.0752869 13.6132 0.0752869H7.82603C7.0249 0.0752869 6.37921 0.720978 6.37921 1.52211C6.37921 2.32324 7.03087 2.96893 7.82603 2.96893Z" fill="#623CE7"/>
<path d="M17.9546 4.41611H3.48644C1.89019 4.41611 0.592834 5.71346 0.592834 7.30972V27.559C0.592834 29.1552 1.89019 30.4526 3.48644 30.4526H17.9546C19.5509 30.4526 20.8483 29.1552 20.8483 27.559V7.30972C20.8423 5.71346 19.5449 4.41611 17.9546 4.41611ZM3.48644 27.5531V7.30969H17.9546V27.5589H3.48644V27.5531Z" fill="#623CE7"/>
<path d="M14.4855 15.9892H12.686C12.3691 15.9892 12.1121 15.7321 12.1121 15.4152V9.29934C12.1121 8.70746 11.3348 8.49821 11.0419 9.01237L6.45649 18.0102C6.23529 18.3929 6.51628 18.8711 6.95272 18.8711H8.66857C8.98545 18.8711 9.24251 19.1282 9.24251 19.4451V25.4955C9.24251 26.0874 10.0197 26.2966 10.3127 25.7825L14.9758 16.8504C15.197 16.4678 14.922 15.9895 14.4856 15.9895L14.4855 15.9892Z" fill="#FF2F5E"/>
</svg>
