<svg width="21" height="25" viewBox="0 0 21 25" fill="none" xmlns="http://www.w3.org/2000/svg">
<rect x="3.20502" y="17.4781" width="14.4003" height="6.163" fill="#D7D9E6"/>
<path d="M13.7617 9.38468C13.4513 9.38468 13.1996 9.63629 13.1996 9.94674V20.5697C13.1996 20.8799 13.4513 21.1318 13.7617 21.1318C14.0722 21.1318 14.3238 20.8799 14.3238 20.5697V9.94674C14.3238 9.63629 14.0722 9.38468 13.7617 9.38468Z" fill="black"/>
<path d="M7.13005 9.38468C6.8196 9.38468 6.56799 9.63629 6.56799 9.94674V20.5697C6.56799 20.8799 6.8196 21.1318 7.13005 21.1318C7.4405 21.1318 7.69211 20.8799 7.69211 20.5697V9.94674C7.69211 9.63629 7.4405 9.38468 7.13005 9.38468Z" fill="black"/>
<path d="M2.29617 7.8343V21.6823C2.29617 22.5008 2.5963 23.2694 3.1206 23.8209C3.64248 24.374 4.36876 24.688 5.12886 24.6893H15.7632C16.5235 24.688 17.2498 24.374 17.7715 23.8209C18.2958 23.2694 18.5959 22.5008 18.5959 21.6823V7.8343C19.6381 7.55766 20.3135 6.55079 20.174 5.48134C20.0344 4.41211 19.1235 3.61227 18.045 3.61205H15.1673V2.90948C15.1706 2.31866 14.937 1.75133 14.5188 1.33396C14.1005 0.916802 13.5323 0.684514 12.9415 0.689344H7.95057C7.35975 0.684514 6.79154 0.916802 6.37329 1.33396C5.95504 1.75133 5.72144 2.31866 5.72473 2.90948V3.61205H2.84703C1.76858 3.61227 0.857649 4.41211 0.718012 5.48134C0.578595 6.55079 1.25394 7.55766 2.29617 7.8343ZM15.7632 23.5652H5.12886C4.16787 23.5652 3.42029 22.7396 3.42029 21.6823V7.8837H17.4718V21.6823C17.4718 22.7396 16.7242 23.5652 15.7632 23.5652ZM6.84885 2.90948C6.84512 2.61681 6.96016 2.33512 7.16786 2.12852C7.37534 1.92192 7.65769 1.80841 7.95057 1.81346H12.9415C13.2344 1.80841 13.5167 1.92192 13.7242 2.12852C13.9319 2.3349 14.0469 2.61681 14.0432 2.90948V3.61205H6.84885V2.90948ZM2.84703 4.73617H18.045C18.6038 4.73617 19.0567 5.18911 19.0567 5.74788C19.0567 6.30664 18.6038 6.75958 18.045 6.75958H2.84703C2.28826 6.75958 1.83532 6.30664 1.83532 5.74788C1.83532 5.18911 2.28826 4.73617 2.84703 4.73617Z" fill="black"/>
<path d="M10.4458 9.38468C10.1354 9.38468 9.88379 9.63629 9.88379 9.94674V20.5697C9.88379 20.8799 10.1354 21.1318 10.4458 21.1318C10.7563 21.1318 11.0079 20.8799 11.0079 20.5697V9.94674C11.0079 9.63629 10.7563 9.38468 10.4458 9.38468Z" fill="black"/>
</svg>
