<svg width="11" height="13" viewBox="0 0 11 13" fill="none" xmlns="http://www.w3.org/2000/svg">
<path d="M5.8413 1.00729C5.74247 0.91343 5.61138 0.861099 5.47509 0.861099C5.3388 0.861099 5.2077 0.91343 5.10888 1.00729C4.93454 1.18111 0.832985 5.34559 0.832985 8.0736C0.826988 8.68488 0.942965 9.29122 1.17413 9.85713C1.40529 10.423 1.747 10.9372 2.17926 11.3694C2.61152 11.8017 3.12565 12.1434 3.69156 12.3746C4.25748 12.6057 4.86381 12.7217 5.47509 12.7157C6.08637 12.7217 6.6927 12.6057 7.25862 12.3746C7.82453 12.1434 8.33866 11.8017 8.77092 11.3694C9.20318 10.9372 9.54488 10.423 9.77605 9.85713C10.0072 9.29122 10.1232 8.68488 10.1172 8.0736C10.1172 5.34559 6.01564 1.18111 5.8413 1.00729ZM5.99088 10.1368H5.47509C5.2029 10.1413 4.93258 10.091 4.68022 9.98895C4.42786 9.88687 4.19861 9.73507 4.00611 9.54258C3.81362 9.35009 3.66182 9.12084 3.55974 8.86847C3.45766 8.61611 3.4074 8.34579 3.41193 8.0736V7.55781H4.44351V8.0736C4.44351 8.3472 4.55219 8.60958 4.74565 8.80304C4.93911 8.9965 5.2015 9.10518 5.47509 9.10518H5.99088V10.1368Z" fill="white"/>
</svg>
