<svg width="27" height="32" viewBox="0 0 27 32" fill="none" xmlns="http://www.w3.org/2000/svg">
<path fill-rule="evenodd" clip-rule="evenodd" d="M23.6045 15.0817L20.249 12.0743L15.7469 23.8743L23.6045 15.0817ZM15.5909 18.3726L18.8135 9.93047C18.8135 9.92838 18.8146 9.92629 18.8156 9.92421L19.6342 7.77952L15.5909 6.23254V18.3726ZM13.7334 23.2431H7.53297L12.9434 25.3137L13.7334 23.2431ZM12.5834 27.4135L6.79748 25.199L11.1097 29.0627L12.5834 27.4135ZM2.93269 21.1569H13.4813V2.38042H2.93269V21.1569ZM25.8759 15.6908L11.9833 31.2356C11.7966 31.4453 11.5329 31.5715 11.2513 31.5861C11.2323 31.5872 11.2122 31.5882 11.1922 31.5882C10.9316 31.5882 10.6785 31.4922 10.4844 31.318L1.16996 22.9708C1.16574 22.9677 1.16468 22.9625 1.15941 22.9583C1.15413 22.9531 1.14675 22.95 1.14253 22.9448C1.08029 22.8843 1.04021 22.8092 0.993794 22.7361C0.970587 22.6986 0.936831 22.6662 0.918899 22.6277C0.916789 22.6224 0.913625 22.6203 0.91257 22.6162C0.889363 22.5651 0.888308 22.5056 0.874595 22.4514C0.872485 22.4451 0.87143 22.4378 0.86932 22.4305C0.854552 22.3658 0.828181 22.3053 0.826071 22.2396C0.825016 22.2313 0.826071 22.2229 0.826071 22.2146C0.826071 22.2094 0.822906 22.2052 0.822906 22.2V1.33722C0.822906 0.760365 1.29548 0.294083 1.87777 0.294083H14.5361C15.1194 0.294083 15.591 0.760365 15.591 1.33722V3.99513L21.3705 6.20658C21.9117 6.41313 22.1817 7.01293 21.9771 7.54806L21.0509 9.97544L25.7936 14.2273C26.2208 14.6111 26.2577 15.2631 25.8759 15.6908ZM7.15219 10.2038C7.15219 10.4917 7.38848 10.7254 7.67962 10.7254H8.73448C10.1891 10.7254 11.3716 11.8947 11.3716 13.3332C11.3716 14.5933 10.4645 15.6459 9.26192 15.8879V16.9842C9.26192 17.5611 8.79039 18.0273 8.20705 18.0273C7.62477 18.0273 7.15219 17.5611 7.15219 16.9842V15.9411H6.09733C5.51505 15.9411 5.04247 15.4748 5.04247 14.8979C5.04247 14.3211 5.51505 13.8548 6.09733 13.8548H8.73554C9.02563 13.8548 9.26192 13.6211 9.26192 13.3332C9.26192 13.0464 9.02563 12.8117 8.73448 12.8117H7.67962C6.22602 12.8117 5.04247 11.6423 5.04247 10.2038C5.04247 8.9437 5.9507 7.89117 7.15219 7.64917V6.55283C7.15219 5.97597 7.62477 5.50969 8.20705 5.50969C8.79039 5.50969 9.26192 5.97597 9.26192 6.55283V7.59597H10.3168C10.9001 7.59597 11.3716 8.06225 11.3716 8.6391C11.3716 9.21596 10.9001 9.68224 10.3168 9.68224H7.67962C7.38848 9.68224 7.15219 9.91695 7.15219 10.2038Z" fill="#FA5F1C"/>
</svg>
