<svg width="13" height="14" viewBox="0 0 13 14" fill="none" xmlns="http://www.w3.org/2000/svg">
<path d="M6.68864 9.0843L7.72022 8.05273L6.9909 7.3234L5.95932 8.35498L5.14128 7.53694L6.17286 6.50536L5.44353 5.77603L4.41195 6.80761L3.72647 6.12264C3.62974 6.02595 3.49857 5.97163 3.3618 5.97163C3.22503 5.97163 3.09386 6.02595 2.99714 6.12264L2.22346 6.89633C1.7061 7.41301 1.38878 8.09645 1.32796 8.8251C1.26714 9.55374 1.46675 10.2803 1.89129 10.8756L0.436761 12.3302C0.387498 12.3777 0.348204 12.4347 0.321172 12.4976C0.29414 12.5605 0.279911 12.6282 0.279316 12.6967C0.278721 12.7652 0.291772 12.8331 0.317706 12.8965C0.34364 12.9599 0.381939 13.0175 0.430368 13.0659C0.478797 13.1143 0.536386 13.1526 0.599775 13.1785C0.663163 13.2045 0.731082 13.2175 0.799568 13.2169C0.868054 13.2163 0.935736 13.2021 0.998665 13.1751C1.06159 13.1481 1.11851 13.1088 1.16609 13.0595L2.62061 11.605C3.21602 12.0296 3.94276 12.2292 4.67152 12.1683C5.40028 12.1073 6.0838 11.7899 6.60045 11.2723L7.37413 10.4986C7.47082 10.4019 7.52515 10.2707 7.52515 10.1339C7.52515 9.99717 7.47082 9.866 7.37413 9.76927L6.68864 9.0843Z" fill="white"/>
<path d="M9.2233 7.9196C9.32002 8.0163 9.45119 8.07062 9.58796 8.07062C9.72473 8.07062 9.8559 8.0163 9.95263 7.9196L10.7263 7.14592C11.2437 6.62924 11.561 5.94579 11.6218 5.21715C11.6826 4.4885 11.483 3.76191 11.0585 3.1666L12.513 1.71208C12.5623 1.6645 12.6016 1.60758 12.6286 1.54465C12.6556 1.48173 12.6699 1.41404 12.6704 1.34556C12.671 1.27707 12.658 1.20915 12.6321 1.14576C12.6061 1.08238 12.5678 1.02479 12.5194 0.976358C12.471 0.927929 12.4134 0.88963 12.35 0.863696C12.2866 0.837762 12.2187 0.824711 12.1502 0.825306C12.0817 0.825901 12.014 0.84013 11.9511 0.867162C11.8882 0.894194 11.8313 0.933488 11.7837 0.982751L10.3292 2.43728C9.73375 2.01267 9.00701 1.81306 8.27824 1.87398C7.54948 1.9349 6.86597 2.25239 6.34932 2.76996L5.57564 3.54365C5.47894 3.64037 5.42462 3.77154 5.42462 3.90831C5.42462 4.04508 5.47894 4.17625 5.57564 4.27297L9.2233 7.9196Z" fill="white"/>
</svg>
