<svg width="21" height="23" viewBox="0 0 21 23" fill="none" xmlns="http://www.w3.org/2000/svg">
<path fill-rule="evenodd" clip-rule="evenodd" d="M10.5 14C11.8807 14 13 12.8807 13 11.5C13 10.1193 11.8807 8.99997 10.5 8.99997C9.11929 8.99997 8 10.1193 8 11.5C8 12.8807 9.11929 14 10.5 14ZM14.5 11.5C14.5 13.7091 12.7091 15.5 10.5 15.5C8.29086 15.5 6.5 13.7091 6.5 11.5C6.5 9.29083 8.29086 7.49997 10.5 7.49997C12.7091 7.49997 14.5 9.29083 14.5 11.5Z" fill="#1FB9FC"/>
<path fill-rule="evenodd" clip-rule="evenodd" d="M9.40471 2.34186L9.01716 3.50452C8.69037 4.48487 7.97329 5.17934 7.22212 5.59759C7.15807 5.63326 7.09465 5.66994 7.03188 5.70762C6.29322 6.15106 5.33191 6.42565 4.31829 6.21823L3.11651 5.9723C2.90566 5.92915 2.69086 6.02577 2.58326 6.21215L1.96227 7.28772C1.85467 7.4741 1.8784 7.70843 2.02119 7.86946L2.83621 8.78857C3.52026 9.55998 3.76522 10.5267 3.75157 11.3882C3.75039 11.4627 3.75039 11.5372 3.75157 11.6117C3.76521 12.4732 3.52025 13.4399 2.83621 14.2113L2.02119 15.1304C1.8784 15.2914 1.85467 15.5258 1.96228 15.7121L2.58326 16.7877C2.69086 16.9741 2.90566 17.0707 3.11651 17.0276L4.3182 16.7817C5.33184 16.5742 6.29316 16.8488 7.03183 17.2923C7.09461 17.33 7.15805 17.3667 7.22212 17.4023C7.97329 17.8206 8.69037 18.5151 9.01716 19.4954L9.40471 20.6581C9.47277 20.8623 9.66384 21 9.87905 21H11.121C11.3362 21 11.5273 20.8623 11.5954 20.6581L11.9829 19.4954C12.3097 18.5151 13.0268 17.8206 13.7779 17.4023C13.842 17.3667 13.9054 17.33 13.9682 17.2923C14.7069 16.8488 15.6682 16.5742 16.6819 16.7817L17.8835 17.0276C18.0944 17.0707 18.3092 16.9741 18.4168 16.7877L19.0377 15.7121C19.1453 15.5258 19.1216 15.2914 18.9788 15.1304L18.1639 14.2114C17.4798 13.44 17.2348 12.4732 17.2485 11.6118C17.2497 11.5373 17.2497 11.4626 17.2485 11.3881C17.2348 10.5267 17.4798 9.55993 18.1639 8.78852L18.9788 7.86946C19.1216 7.70843 19.1453 7.47411 19.0377 7.28772L18.4168 6.21215C18.3092 6.02577 18.0944 5.92916 17.8835 5.9723L16.6818 6.21822C15.6682 6.42564 14.7068 6.15105 13.9682 5.70762C13.9054 5.66994 13.842 5.63326 13.7779 5.59759C13.0268 5.17934 12.3097 4.48487 11.9829 3.50452L11.5954 2.34185C11.5273 2.13768 11.3362 1.99997 11.121 1.99997H9.87905C9.66384 1.99997 9.47277 2.13768 9.40471 2.34186ZM7.59413 3.03017C7.41189 3.57691 6.99591 4.0067 6.4924 4.28706C6.41408 4.33066 6.33655 4.37551 6.25983 4.42157C5.76514 4.71854 5.18428 4.86436 4.61901 4.74868L3.41723 4.50275C2.57385 4.33017 1.71465 4.71662 1.28422 5.46215L0.663237 6.53772C0.232806 7.28325 0.327726 8.22056 0.898881 8.86466L1.71391 9.78378C2.09582 10.2145 2.26088 10.7888 2.25176 11.3644C2.25033 11.4547 2.25033 11.5452 2.25176 11.6355C2.26087 12.2111 2.09582 12.7854 1.71391 13.2161L0.898883 14.1352C0.327727 14.7793 0.232806 15.7166 0.663237 16.4621L1.28422 17.5377C1.71465 18.2832 2.57385 18.6697 3.41723 18.4971L4.61892 18.2512C5.18421 18.1355 5.76507 18.2813 6.25977 18.5783C6.33651 18.6244 6.41406 18.6693 6.4924 18.7129C6.99591 18.9932 7.41189 19.423 7.59413 19.9698L7.98169 21.1324C8.25391 21.9491 9.01819 22.5 9.87905 22.5H11.121C11.9819 22.5 12.7462 21.9491 13.0184 21.1324L13.4059 19.9698C13.5882 19.423 14.0042 18.9932 14.5077 18.7129C14.586 18.6693 14.6635 18.6244 14.7403 18.5783C15.235 18.2814 15.8158 18.1355 16.3811 18.2512L17.5828 18.4971C18.4262 18.6697 19.2854 18.2832 19.7158 17.5377L20.3368 16.4621C20.7672 15.7166 20.6723 14.7793 20.1011 14.1352L19.2862 13.2162C18.9042 12.7855 18.7392 12.2111 18.7483 11.6355C18.7497 11.5452 18.7497 11.4547 18.7483 11.3643C18.7392 10.7888 18.9042 10.2144 19.2862 9.78372L20.1011 8.86466C20.6723 8.22056 20.7672 7.28325 20.3368 6.53772L19.7158 5.46215C19.2854 4.71662 18.4262 4.33017 17.5828 4.50276L16.381 4.74867C15.8158 4.86435 15.2349 4.71854 14.7402 4.42156C14.6635 4.3755 14.586 4.33066 14.5077 4.28706C14.0042 4.0067 13.5882 3.57691 13.4059 3.03017L13.0184 1.86751C12.7462 1.05083 11.9819 0.499969 11.121 0.499969H9.87905C9.01819 0.499969 8.25391 1.05083 7.98168 1.86751L7.59413 3.03017Z" fill="#1FB9FC"/>
</svg>
