<svg width="31" height="32" viewBox="0 0 31 32" fill="none" xmlns="http://www.w3.org/2000/svg">
<path d="M29.8006 13.2853L26.3882 12.7057C26.1946 12.0947 25.9381 11.5151 25.6477 10.9354L27.643 8.13546C27.9321 7.71678 27.9007 7.13717 27.5462 6.78389L24.8103 4.04803C24.4557 3.69346 23.8774 3.62935 23.4587 3.95122L20.6588 5.94653C20.1118 5.65735 19.4995 5.39961 18.8885 5.20598L18.3416 1.82639C18.2448 1.31089 17.8261 0.957611 17.3119 0.957611H13.4495C12.934 0.957611 12.5166 1.31218 12.4198 1.82639L11.8402 5.23881C11.2291 5.43243 10.6495 5.68891 10.0699 5.97936L7.26992 3.98405C6.85124 3.69487 6.27163 3.7263 5.91835 4.08086L3.18249 6.81672C2.82792 7.17128 2.76381 7.74961 3.08568 8.16829L5.08099 10.9683C4.79181 11.5152 4.53407 12.1275 4.34044 12.7385L0.960851 13.2854C0.445351 13.3823 0.0920715 13.8009 0.0920715 14.3152V18.1775C0.0920715 18.693 0.446639 19.1104 0.960851 19.2073L4.37327 19.7869C4.56689 20.3979 4.82337 20.9775 5.11382 21.5571L3.11851 24.3571C2.82933 24.7758 2.86076 25.3554 3.21532 25.7087L5.95118 28.4445C6.30574 28.7991 6.88407 28.8632 7.30275 28.5413L10.1027 26.546C10.6496 26.8352 11.262 27.0929 11.873 27.2866L12.4526 30.699C12.5494 31.2145 12.9681 31.5678 13.4823 31.5678H17.3447C17.8602 31.5678 18.2776 31.2132 18.3744 30.699L18.9213 27.2541C19.5324 27.0605 20.112 26.804 20.6916 26.5135L23.4916 28.5088C23.9102 28.798 24.4899 28.7666 24.8431 28.412L27.579 25.6762C27.9336 25.3216 27.9977 24.7433 27.6758 24.3246L25.6805 21.5246C25.9697 20.9777 26.2274 20.3654 26.421 19.7544L29.8335 19.1747C30.349 19.0779 30.7022 18.6592 30.7022 18.145V14.3155C30.6696 13.8 30.315 13.3826 29.8008 13.2858L29.8006 13.2853ZM15.3807 21.7507C12.323 21.7507 9.87619 19.2726 9.87619 16.2462C9.87619 13.1884 12.3543 10.7416 15.3807 10.7416C18.4058 10.7416 20.8853 13.1883 20.8853 16.2462C20.8853 19.304 18.4386 21.7507 15.3807 21.7507Z" fill="#623CE7"/>
<path fill-rule="evenodd" clip-rule="evenodd" d="M15.3984 12.983C17.21 12.983 18.6787 14.4518 18.6787 16.2619C18.6787 18.0735 17.21 19.5423 15.3984 19.5423C13.5868 19.5423 12.1194 18.0735 12.1194 16.2619C12.1194 14.4504 13.5882 12.983 15.3984 12.983ZM17.2257 16.2634C17.2257 15.2507 16.4096 14.436 15.3984 14.436C14.3857 14.436 13.571 15.2522 13.571 16.2634C13.571 17.276 14.3871 18.0908 15.3984 18.0908C16.411 18.0908 17.2257 17.2746 17.2257 16.2634Z" fill="#FF2F5E"/>
</svg>
