<svg width="14" height="14" viewBox="0 0 14 14" fill="none" xmlns="http://www.w3.org/2000/svg">
<path fill-rule="evenodd" clip-rule="evenodd" d="M6.99903 1.99998L6.20645 1.00925C5.86467 0.582019 5.3472 0.333313 4.80008 0.333313H4.6657C3.74523 0.333313 2.99903 1.07951 2.99903 1.99998C2.99903 2.23701 3.04852 2.46249 3.13772 2.66665H1.6657C0.929321 2.66665 0.332367 3.2636 0.332367 3.99998V5.99998C0.332367 6.4935 0.600499 6.9244 0.999034 7.15494V11.6666C0.999034 12.7712 1.89446 13.6666 2.99903 13.6666H10.999C12.1036 13.6666 12.999 12.7712 12.999 11.6666V7.15494C13.3976 6.9244 13.6657 6.4935 13.6657 5.99998V3.99998C13.6657 3.2636 13.0687 2.66665 12.3324 2.66665H10.8604C10.9496 2.46249 10.999 2.23701 10.999 1.99998C10.999 1.07951 10.2528 0.333313 9.33237 0.333313H9.19799C8.65087 0.333313 8.1334 0.582019 7.79161 1.00925L6.99903 1.99998ZM7.74633 2.66665H9.33237C9.70056 2.66665 9.99903 2.36817 9.99903 1.99998C9.99903 1.63179 9.70056 1.33331 9.33237 1.33331H9.19799C8.95465 1.33331 8.7245 1.44393 8.57248 1.63395L7.74633 2.66665ZM1.6657 3.66665C1.48161 3.66665 1.33237 3.81589 1.33237 3.99998V5.99998C1.33237 6.18407 1.48161 6.33331 1.6657 6.33331H6.49903V3.66665H1.6657ZM7.49903 3.66665V6.33331H12.3324C12.5165 6.33331 12.6657 6.18407 12.6657 5.99998V3.99998C12.6657 3.81589 12.5165 3.66665 12.3324 3.66665H7.49903ZM3.99903 1.99998C3.99903 2.36817 4.29751 2.66665 4.6657 2.66665H6.25174L5.42558 1.63395C5.27357 1.44393 5.04342 1.33331 4.80008 1.33331H4.6657C4.29751 1.33331 3.99903 1.63179 3.99903 1.99998ZM6.49903 7.33331H1.99903V11.6666C1.99903 12.2189 2.44675 12.6666 2.99903 12.6666H6.49903V7.33331ZM7.49903 12.6666V7.33331H11.999V11.6666C11.999 12.2189 11.5513 12.6666 10.999 12.6666H7.49903Z" fill="#623CE7"/>
</svg>
