<svg width="21" height="21" viewBox="0 0 21 21" fill="none" xmlns="http://www.w3.org/2000/svg">
<path fill-rule="evenodd" clip-rule="evenodd" d="M10.5 0.749969C10.9142 0.749969 11.25 1.08576 11.25 1.49997V2.53466C15.0697 2.88981 18.1102 5.93029 18.4653 9.74997H19.5C19.9142 9.74997 20.25 10.0858 20.25 10.5C20.25 10.9142 19.9142 11.25 19.5 11.25H18.4653C18.1102 15.0696 15.0697 18.1101 11.25 18.4653V19.5C11.25 19.9142 10.9142 20.25 10.5 20.25C10.0858 20.25 9.75 19.9142 9.75 19.5V18.4653C5.93032 18.1101 2.88984 15.0696 2.53469 11.25H1.5C1.08579 11.25 0.75 10.9142 0.75 10.5C0.75 10.0858 1.08579 9.74997 1.5 9.74997H2.53469C2.88984 5.93029 5.93032 2.88981 9.75 2.53466V1.49997C9.75 1.08576 10.0858 0.749969 10.5 0.749969ZM10.5 17C14.0899 17 17 14.0898 17 10.5C17 6.91012 14.0899 3.99997 10.5 3.99997C6.91015 3.99997 4 6.91012 4 10.5C4 14.0898 6.91015 17 10.5 17Z" fill="#FC6B21"/>
<path fill-rule="evenodd" clip-rule="evenodd" d="M10.5 12C11.3284 12 12 11.3284 12 10.5C12 9.67154 11.3284 8.99997 10.5 8.99997C9.67157 8.99997 9 9.67154 9 10.5C9 11.3284 9.67157 12 10.5 12ZM10.5 13.5C12.1569 13.5 13.5 12.1568 13.5 10.5C13.5 8.84312 12.1569 7.49997 10.5 7.49997C8.84315 7.49997 7.5 8.84312 7.5 10.5C7.5 12.1568 8.84315 13.5 10.5 13.5Z" fill="#FC6B21"/>
</svg>
