<svg width="27" height="28" viewBox="0 0 27 28" fill="none" xmlns="http://www.w3.org/2000/svg">
<path fill-rule="evenodd" clip-rule="evenodd" d="M13.4812 21.0943C11.4865 21.0943 9.86443 19.4902 9.86443 17.5178C9.86443 15.5453 11.4865 13.9412 13.4812 13.9412C15.4758 13.9412 17.0979 15.5453 17.0979 17.5178C17.0979 19.4902 15.4758 21.0943 13.4812 21.0943ZM13.481 12.153C10.4891 12.153 8.05589 14.5591 8.05589 17.5178C8.05589 20.4765 10.4891 22.8827 13.481 22.8827C16.473 22.8827 18.9062 20.4765 18.9062 17.5178C18.9062 14.5591 16.473 12.153 13.481 12.153Z" fill="#5843BE"/>
<path fill-rule="evenodd" clip-rule="evenodd" d="M18.7633 9.19892C17.6475 8.50328 16.3844 8.02491 15.0299 7.81389L18.5029 2.31761H23.522L18.7633 9.19892ZM21.6188 17.518C21.6188 21.9548 17.9686 25.5653 13.4811 25.5653C8.99448 25.5653 5.34336 21.9548 5.34336 17.518C5.34336 13.0804 8.99448 9.47076 13.4811 9.47076C17.9686 9.47076 21.6188 13.0804 21.6188 17.518ZM3.4401 2.31761H8.45926L11.9332 7.81389C10.5778 8.02491 9.31553 8.50328 8.19885 9.19892L3.4401 2.31761ZM26.0348 1.00596C25.8793 0.71268 25.5709 0.529381 25.2355 0.529381H18.002C17.69 0.529381 17.4007 0.687644 17.2352 0.949627L13.481 6.8894L9.72682 0.949627C9.56136 0.687644 9.27201 0.529381 8.96007 0.529381H1.72655C1.3911 0.529381 1.08367 0.71268 0.927249 1.00596C0.770824 1.29924 0.79162 1.65421 0.980596 1.92782L6.76108 10.288C4.78362 12.087 3.53493 14.6577 3.53493 17.518C3.53493 22.941 7.99711 27.3536 13.481 27.3536C18.9658 27.3536 23.4271 22.941 23.4271 17.518C23.4271 14.6577 22.1784 12.087 20.201 10.288L25.9823 1.92782C26.1713 1.65421 26.1921 1.29924 26.0348 1.00596Z" fill="#5843BE"/>
</svg>
