<svg width="33" height="32" viewBox="0 0 33 32" fill="none" xmlns="http://www.w3.org/2000/svg">
<path fill-rule="evenodd" clip-rule="evenodd" d="M5.18021 8.63938H2.54315C1.95983 8.63938 1.48833 9.10565 1.48833 9.68248C1.48833 10.2593 1.95983 10.7256 2.54315 10.7256H3.59798V11.7687C3.59798 12.3455 4.06948 12.8118 4.6528 12.8118C5.23506 12.8118 5.70762 12.3455 5.70762 11.7687V10.6724C6.90907 10.4304 7.81727 9.3779 7.81727 8.11783C7.81727 6.67939 6.63376 5.51008 5.18021 5.51008H4.12539C3.83426 5.51008 3.59798 5.27538 3.59798 4.98853C3.59798 4.70167 3.83426 4.46698 4.12539 4.46698H6.76245C7.34471 4.46698 7.81727 4.00071 7.81727 3.42387C7.81727 2.84704 7.34471 2.38077 6.76245 2.38077H5.70762V1.33767C5.70762 0.760837 5.23506 0.294571 4.6528 0.294571C4.06948 0.294571 3.59798 0.760837 3.59798 1.33767V2.43397C2.39548 2.67597 1.48833 3.72846 1.48833 4.98853C1.48833 6.42696 2.67079 7.59628 4.12539 7.59628H5.18021C5.47029 7.59628 5.70762 7.83098 5.70762 8.11783C5.70762 8.40468 5.47029 8.63938 5.18021 8.63938Z" fill="#1A55AF"/>
<path fill-rule="evenodd" clip-rule="evenodd" d="M22.5844 24.286H6.76198C6.18077 24.286 5.70716 23.8186 5.70716 23.2429V18.4592L7.07104 19.8079C7.48348 20.2158 8.15013 20.2158 8.56257 19.8079C8.975 19.4001 8.975 18.7408 8.56257 18.333L5.39809 15.2037C4.98566 14.7958 4.31901 14.7958 3.90657 15.2037L0.742097 18.333C0.329661 18.7408 0.329661 19.4001 0.742097 19.8079C1.15453 20.2158 1.82118 20.2158 2.23362 19.8079L3.59751 18.4592V23.2429C3.59751 24.9681 5.0173 26.3722 6.76198 26.3722H22.5844C23.1666 26.3722 23.6392 25.9059 23.6392 25.3291C23.6392 24.7522 23.1666 24.286 22.5844 24.286Z" fill="#1A55AF"/>
<path fill-rule="evenodd" clip-rule="evenodd" d="M27.3304 23.2427H29.9675C30.5508 23.2427 31.0223 22.7765 31.0223 22.1996C31.0223 21.6228 30.5508 21.1565 29.9675 21.1565H28.9127V20.1134C28.9127 19.5366 28.4412 19.0703 27.8578 19.0703C27.2756 19.0703 26.803 19.5366 26.803 20.1134V21.2097C25.6016 21.4517 24.6934 22.5042 24.6934 23.7643C24.6934 25.2027 25.8769 26.372 27.3304 26.372H28.3853C28.6764 26.372 28.9127 26.6067 28.9127 26.8936C28.9127 27.1804 28.6764 27.4151 28.3853 27.4151H25.7482C25.1659 27.4151 24.6934 27.8814 24.6934 28.4582C24.6934 29.0351 25.1659 29.5013 25.7482 29.5013H26.803V30.5444C26.803 31.1213 27.2756 31.5875 27.8578 31.5875C28.4412 31.5875 28.9127 31.1213 28.9127 30.5444V29.4481C30.1152 29.2061 31.0223 28.1537 31.0223 26.8936C31.0223 25.4552 29.8399 24.2858 28.3853 24.2858H27.3304C27.0403 24.2858 26.803 24.0511 26.803 23.7643C26.803 23.4774 27.0403 23.2427 27.3304 23.2427Z" fill="#1A55AF"/>
<path fill-rule="evenodd" clip-rule="evenodd" d="M31.7685 12.0743C31.356 11.6664 30.6894 11.6664 30.277 12.0743L28.9131 13.423V8.63933C28.9131 6.91404 27.4933 5.51003 25.7486 5.51003H9.92622C9.34396 5.51003 8.8714 5.97629 8.8714 6.55313C8.8714 7.12996 9.34396 7.59623 9.92622 7.59623H25.7486C26.3298 7.59623 26.8034 8.06354 26.8034 8.63933V13.423L25.4395 12.0743C25.0271 11.6664 24.3604 11.6664 23.948 12.0743C23.5356 12.4821 23.5356 13.1414 23.948 13.5492L27.1125 16.6785C27.5249 17.0864 28.1916 17.0864 28.604 16.6785L31.7685 13.5492C32.1809 13.1414 32.1809 12.4821 31.7685 12.0743Z" fill="#1A55AF"/>
</svg>
