<svg width="31" height="29" viewBox="0 0 31 29" fill="none" xmlns="http://www.w3.org/2000/svg">
<path fill-rule="evenodd" clip-rule="evenodd" d="M24.8144 6.81713C24.714 6.71669 24.58 6.66049 24.4377 6.66049C24.2955 6.66049 24.1615 6.71669 24.0611 6.81713L23.5972 7.27986C23.3903 7.48792 23.3903 7.82632 23.5972 8.03315L25.2233 9.65932C25.4326 9.86737 25.7698 9.86617 25.9766 9.65932L26.4405 9.19658C26.6474 8.98853 26.6474 8.65135 26.4405 8.4433L24.8144 6.81713Z" fill="#623CE7"/>
<path fill-rule="evenodd" clip-rule="evenodd" d="M27.1634 9.91633L26.7007 10.3791C26.4078 10.672 26.0168 10.8346 25.6019 10.8346C25.187 10.8346 24.7972 10.672 24.5042 10.3791L22.8781 8.75409C22.5851 8.45994 22.4237 8.07013 22.4237 7.65524C22.4237 7.24032 22.5851 6.85053 22.8781 6.55759L23.342 6.09486C23.9279 5.50776 24.9502 5.50776 25.5373 6.09486L27.1635 7.71983C27.4564 8.01398 27.6179 8.40379 27.6179 8.81868C27.6179 9.23357 27.4564 9.62339 27.1635 9.91633H27.1634ZM29.8383 6.55043L26.7222 3.43432C25.4631 2.17523 23.4135 2.17642 22.157 3.43432L15.9394 9.65094C14.6803 10.91 14.6803 12.9584 15.9394 14.2174L19.0555 17.3335C19.6857 17.9636 20.5119 18.2781 21.3393 18.2781C22.1656 18.2781 22.993 17.9624 23.6219 17.3335L29.8386 11.1181C31.0977 9.85899 31.0977 7.80943 29.8386 6.55043" fill="#623CE7"/>
<path fill-rule="evenodd" clip-rule="evenodd" d="M15.9791 14.9536C15.8811 14.8568 15.7448 14.8066 15.6097 14.8042C15.471 14.8066 15.3406 14.8652 15.2462 14.9656L12.8201 17.6344C12.7077 17.754 12.6598 17.9214 12.6921 18.0828L12.9301 19.2701L11.7415 19.0322C11.5741 18.9999 11.4019 19.0513 11.2812 19.1721L8.30985 22.1434C8.18909 22.2642 8.13767 22.4364 8.16995 22.6038L8.27876 23.1454L7.73712 23.0378C7.56972 23.0043 7.39633 23.0557 7.27558 23.1765L7.03046 23.4216C5.94236 24.5097 5.16994 25.874 4.79686 27.3676C4.7024 27.7466 4.81002 28.1376 5.08622 28.4138C5.29667 28.6243 5.57409 28.7367 5.86225 28.7367C5.95193 28.7367 6.0428 28.7259 6.13248 28.7032C7.62592 28.3301 8.98902 27.5565 10.0784 26.4684L12.2618 24.2862C12.3814 24.1655 12.434 23.9921 12.4005 23.8247L12.2929 23.2843L12.8333 23.3919C13.0055 23.4242 13.1813 23.3715 13.302 23.246L18.312 17.9933C18.5045 17.7924 18.5009 17.4755 18.3048 17.2795L15.9791 14.9536Z" fill="#623CE7"/>
<path fill-rule="evenodd" clip-rule="evenodd" d="M15.9883 1.18641C16.2705 1.18641 16.4988 0.958029 16.4988 0.67583C16.4988 0.393632 16.2705 0.165253 15.9883 0.165253C7.11959 0.165253 0.172607 7.33722 0.172607 16.4915C0.172607 16.7737 0.400987 17.0009 0.683185 17.0009C0.965383 17.0009 1.19376 16.7737 1.19376 16.4915C1.19376 7.90871 7.69138 1.18641 15.9883 1.18641Z" fill="#FF2F5E"/>
<path fill-rule="evenodd" clip-rule="evenodd" d="M15.9903 3.73673C16.2725 3.73673 16.5009 3.50835 16.5009 3.22615C16.5009 2.94395 16.2725 2.71677 15.9903 2.71677C8.55296 2.71677 2.72632 8.76717 2.72632 16.4913C2.72632 16.7735 2.9535 17.0007 3.2357 17.0007C3.5179 17.0007 3.74628 16.7735 3.74628 16.4913C3.74628 9.33866 9.12449 3.7367 15.9903 3.7367" fill="#FF2F5E"/>
<path fill-rule="evenodd" clip-rule="evenodd" d="M15.9893 5.26843C10.0825 5.26843 5.27576 10.3035 5.27576 16.4926C5.27576 16.7748 5.50414 17.002 5.78633 17.002C6.06733 17.002 6.29572 16.7748 6.29572 16.4926C6.29572 10.8655 10.6445 6.28836 15.9893 6.28836C16.2715 6.28836 16.4999 6.06118 16.4999 5.77898C16.4999 5.49678 16.2715 5.2684 15.9893 5.2684" fill="#FF2F5E"/>
</svg>
