<svg width="11" height="13" viewBox="0 0 11 13" fill="none" xmlns="http://www.w3.org/2000/svg">
<path d="M10.1175 0.442139H0.833294C0.548579 0.442139 0.317505 0.672697 0.317505 0.957928V12.8211L2.38066 11.2737L3.92803 12.8211L5.4754 11.2737L7.02277 12.8211L8.57014 11.2737L10.6333 12.8211V0.957928C10.6333 0.672697 10.4022 0.442139 10.1175 0.442139ZM5.99119 8.69477H2.38066V7.66319H5.99119V8.69477ZM5.99119 6.63161H2.38066V5.60003H5.99119V6.63161ZM5.99119 4.56845H2.38066V3.53688H5.99119V4.56845ZM8.57014 8.69477H7.02277V7.66319H8.57014V8.69477ZM8.57014 6.63161H7.02277V5.60003H8.57014V6.63161ZM8.57014 4.56845H7.02277V3.53688H8.57014V4.56845Z" fill="white"/>
</svg>
