<svg width="11" height="13" viewBox="0 0 11 13" fill="none" xmlns="http://www.w3.org/2000/svg">
<path d="M8.57014 1.60007L7.02277 0.0527039L5.4754 1.60007L3.92803 0.0527039L2.38066 1.60007L0.317505 0.0527039V11.9159C0.317505 12.2011 0.548579 12.4316 0.833294 12.4316H10.1175C10.4022 12.4316 10.6333 12.2011 10.6333 11.9159V0.0527039L8.57014 1.60007ZM5.99119 9.8527H2.38066V8.82112H5.99119V9.8527ZM5.99119 7.78954H2.38066V6.75797H5.99119V7.78954ZM5.99119 5.72639H2.38066V4.69481H5.99119V5.72639ZM8.57014 9.8527H7.02277V8.82112H8.57014V9.8527ZM8.57014 7.78954H7.02277V6.75797H8.57014V7.78954ZM8.57014 5.72639H7.02277V4.69481H8.57014V5.72639Z" fill="white"/>
</svg>
