<svg width="16" height="14" viewBox="0 0 16 14" fill="none" xmlns="http://www.w3.org/2000/svg">
<path d="M5.3489 12.5315H3.4392C3.01732 12.5315 2.67532 12.1895 2.67532 11.7676V4.12883M2.67532 4.12883H1.5295C1.10763 4.12883 0.765625 3.78683 0.765625 3.36495V1.45525C0.765625 1.03338 1.10763 0.691376 1.5295 0.691376H13.7516C14.1734 0.691376 14.5154 1.03338 14.5154 1.45525V3.36495C14.5154 3.78683 14.1734 4.12883 13.7516 4.12883H12.6057M2.67532 4.12883H12.6057M12.6057 4.12883V11.7676C12.6057 12.1895 12.2637 12.5315 11.8419 12.5315H10.3141M7.64053 12.9134V6.03853M7.64053 6.03853L5.3489 8.7121M7.64053 6.03853L9.93217 8.7121" stroke="#623CE7" stroke-width="1.14582"/>
</svg>
