<svg width="26" height="32" viewBox="0 0 26 32" fill="none" xmlns="http://www.w3.org/2000/svg">
<path fill-rule="evenodd" clip-rule="evenodd" d="M2.70675 29.502H4.81647V19.0707H2.70675V29.502ZM5.87126 31.5882H1.65182C1.06848 31.5882 0.596954 31.122 0.596954 30.5451V18.0275C0.596954 17.4506 1.06848 16.9843 1.65182 16.9843H5.87126C6.4546 16.9843 6.92612 17.4506 6.92612 18.0275V30.5451C6.92612 31.122 6.4546 31.5882 5.87126 31.5882Z" fill="#427A0A"/>
<path fill-rule="evenodd" clip-rule="evenodd" d="M12.2003 29.502H14.31V10.7255H12.2003V29.502ZM15.3648 31.5882H11.1454C10.562 31.5882 10.0905 31.1219 10.0905 30.5451V9.68234C10.0905 9.10549 10.562 8.63921 11.1454 8.63921H15.3648C15.9482 8.63921 16.4197 9.10549 16.4197 9.68234V30.5451C16.4197 31.1219 15.9482 31.5882 15.3648 31.5882Z" fill="#427A0A"/>
<path fill-rule="evenodd" clip-rule="evenodd" d="M21.6944 29.502H23.8041V2.38043H21.6944V29.502ZM24.8589 31.5882H20.6394C20.0561 31.5882 19.5845 31.1219 19.5845 30.5451V1.33723C19.5845 0.760373 20.0561 0.29409 20.6394 0.29409H24.8589C25.4422 0.29409 25.9137 0.760373 25.9137 1.33723V30.5451C25.9137 31.1219 25.4422 31.5882 24.8589 31.5882Z" fill="#427A0A"/>
</svg>
