<svg width="20" height="20" viewBox="0 0 20 20" fill="none" xmlns="http://www.w3.org/2000/svg">
<path fill-rule="evenodd" clip-rule="evenodd" d="M14 16H18.5858C19.3668 16 20 15.3668 20 14.5858C20 14.2107 19.851 13.851 19.5858 13.5858L18.5858 12.5858C18.2107 12.2107 18 11.702 18 11.1715L18 7.97064C18 3.56856 14.4314 -3.05176e-05 10.0293 -3.05176e-05C5.61789 -3.05176e-05 2.04543 3.58316 2.05867 7.99457L2.06814 11.1476C2.06977 11.6921 1.84928 12.2138 1.45759 12.5921L0.428635 13.586C0.154705 13.8505 2.07459e-06 14.2151 0 14.5959C0 15.3713 0.628628 16 1.40408 16H6C6 18.2091 7.79086 20 10 20C12.2091 20 14 18.2091 14 16ZM17.5251 13.6464L18.3787 14.5H1.64147L2.49967 13.6711C3.18513 13.009 3.57099 12.0961 3.56813 11.1431L3.55867 7.99007C3.54792 4.40884 6.44807 1.49997 10.0293 1.49997C13.603 1.49997 16.5 4.39699 16.5 7.97064L16.5 11.1715C16.5 12.0998 16.8687 12.99 17.5251 13.6464ZM12.5 16H7.5C7.5 17.3807 8.61929 18.5 10 18.5C11.3807 18.5 12.5 17.3807 12.5 16Z" fill="black"/>
</svg>
