<svg width="11" height="13" viewBox="0 0 11 13" fill="none" xmlns="http://www.w3.org/2000/svg">
<path d="M5.75958 7.71173V8.71494C6.12476 8.65305 6.30735 8.4947 6.30735 8.23938C6.30735 7.96756 6.00819 7.82572 5.75958 7.71173Z" fill="white"/>
<path d="M4.68817 5.79406C4.68817 6.07878 4.94555 6.20618 5.20809 6.32171V5.37473C4.86148 5.42579 4.68817 5.56557 4.68817 5.79406Z" fill="white"/>
<path d="M8.57014 1.76828L7.02277 0.220917L5.4754 1.76828L3.92803 0.220917L2.38066 1.76828L0.317505 0.220917V12.0841C0.317505 12.3693 0.548579 12.5999 0.833294 12.5999H10.1175C10.4022 12.5999 10.6333 12.3693 10.6333 12.0841V0.220917L8.57014 1.76828ZM5.7596 9.6743V10.5006H5.2077V9.69081C4.55214 9.6774 3.97703 9.56186 3.4829 9.3442V8.28064C3.94711 8.51017 4.68366 8.71133 5.2077 8.74382V7.49458C4.28496 7.13662 3.47517 6.78949 3.47517 5.79402C3.47517 4.88984 4.30456 4.46483 5.2077 4.3756V3.75872H5.7596V4.3591C6.37442 4.38592 6.93096 4.50971 7.42766 4.72995L7.04907 5.67281C6.63025 5.50105 6.20008 5.39635 5.7596 5.3587V6.54759C6.73857 6.92412 7.5205 7.26712 7.5205 8.17955C7.5205 9.14149 6.72155 9.5861 5.7596 9.6743Z" fill="white"/>
</svg>
