<svg width="16" height="16" viewBox="0 0 16 16" fill="none" xmlns="http://www.w3.org/2000/svg">
<path d="M14.859 14.1163L12.1197 11.377C13.1702 10.1349 13.7 8.53484 13.5983 6.91125C13.4966 5.28765 12.7714 3.76617 11.5742 2.66481C10.3769 1.56345 8.80031 0.967434 7.17389 1.00134C5.54747 1.03525 3.99709 1.69645 2.84678 2.84675C1.69648 3.99706 1.03528 5.54744 1.00137 7.17386C0.967464 8.80028 1.56348 10.3769 2.66484 11.5741C3.7662 12.7714 5.28768 13.4966 6.91128 13.5983C8.53487 13.6999 10.1349 13.1701 11.377 12.1196L14.1164 14.8589C14.216 14.9518 14.3477 15.0023 14.4838 14.9999C14.62 14.9975 14.7498 14.9423 14.8461 14.8461C14.9424 14.7498 14.9975 14.6199 14.9999 14.4838C15.0023 14.3477 14.9518 14.2159 14.859 14.1163ZM2.05148 7.30588C2.05148 6.26665 2.35965 5.25076 2.93702 4.38668C3.51438 3.52259 4.33501 2.84912 5.29513 2.45142C6.25525 2.05373 7.31174 1.94967 8.331 2.15242C9.35026 2.35516 10.2865 2.8556 11.0214 3.59044C11.7562 4.32529 12.2566 5.26153 12.4594 6.28079C12.6621 7.30005 12.5581 8.35654 12.1604 9.31666C11.7627 10.2768 11.0892 11.0974 10.2251 11.6748C9.36103 12.2521 8.34514 12.5603 7.30591 12.5603C5.91235 12.5603 4.57587 12.0067 3.59047 11.0213C2.60507 10.0359 2.05148 8.69944 2.05148 7.30588Z" fill="#623CE7" stroke="#623CE7" stroke-width="0.5"/>
</svg>
