<svg width="14" height="14" viewBox="0 0 14 14" fill="none" xmlns="http://www.w3.org/2000/svg">
<path d="M7.48521 13.919H6.62227C5.92434 13.919 5.35649 13.3512 5.35649 12.6533V12.3613C5.05976 12.2665 4.77147 12.1469 4.49452 12.0035L4.28763 12.2104C3.78654 12.7121 2.98386 12.6974 2.49733 12.2102L1.88742 11.6003C1.40003 11.1135 1.38601 10.3111 1.88759 9.81005L2.09432 9.60332C1.95099 9.32637 1.83135 9.03813 1.73653 8.74135H1.44461C0.746699 8.74135 0.178848 8.17353 0.178848 7.47559V6.61263C0.178848 5.91469 0.746699 5.34687 1.44464 5.34687H1.73655C1.83138 5.05012 1.95102 4.76186 2.09434 4.4849L1.88745 4.27804C1.38617 3.7773 1.4 2.97481 1.88761 2.48774L2.49757 1.87781C2.98523 1.38947 3.78772 1.37728 4.28784 1.87797L4.49454 2.08467C4.7715 1.94137 5.05979 1.82171 5.35651 1.72688V1.43497C5.35651 0.737029 5.92434 0.169205 6.6223 0.169205H7.48524C8.18317 0.169205 8.751 0.737029 8.751 1.43497V1.72691C9.04772 1.82171 9.33601 1.94137 9.61297 2.0847L9.81986 1.87781C10.3209 1.3761 11.1236 1.39082 11.6102 1.878L12.2201 2.48787C12.7075 2.97473 12.7215 3.77713 12.2199 4.27817L12.0132 4.4849C12.1565 4.76186 12.2761 5.05009 12.371 5.34687H12.6629C13.3608 5.34687 13.9287 5.91469 13.9287 6.61263V7.47559C13.9287 8.17353 13.3608 8.74135 12.6629 8.74135H12.371C12.2761 9.0381 12.1565 9.32637 12.0132 9.60332L12.2201 9.81021C12.7213 10.311 12.7075 11.1134 12.2199 11.6005L11.6099 12.2104C11.1223 12.6988 10.3198 12.711 9.81967 12.2103L9.61297 12.0036C9.33601 12.1469 9.04772 12.2665 8.751 12.3614V12.6533C8.751 13.3512 8.18317 13.919 7.48521 13.919ZM4.6292 11.1575C5.01395 11.3851 5.42806 11.557 5.85999 11.6684C6.03788 11.7143 6.16217 11.8748 6.16217 12.0585V12.6533C6.16217 12.907 6.3686 13.1134 6.6223 13.1134H7.48524C7.73894 13.1134 7.94537 12.907 7.94537 12.6533V12.0585C7.94537 11.8748 8.06966 11.7143 8.24755 11.6684C8.67948 11.557 9.09359 11.3851 9.47834 11.1575C9.63665 11.0639 9.8382 11.0894 9.96826 11.2194L10.3896 11.6407C10.5712 11.8226 10.8629 11.8184 11.0401 11.6409L11.6504 11.0306C11.8272 10.8541 11.8331 10.5623 11.6506 10.3801L11.2291 9.95856C11.0991 9.82853 11.0736 9.62696 11.1672 9.46867C11.3947 9.08395 11.5666 8.66984 11.6781 8.23787C11.724 8.05999 11.8845 7.93573 12.0681 7.93573H12.6629C12.9166 7.93573 13.123 7.72932 13.123 7.47562V6.61266C13.123 6.35896 12.9166 6.15255 12.6629 6.15255H12.0681C11.8844 6.15255 11.724 6.02826 11.6781 5.8504C11.5666 5.41844 11.3947 5.00433 11.1672 4.61961C11.0736 4.46132 11.0991 4.25975 11.2291 4.12972L11.6504 3.70839C11.8326 3.52647 11.8278 3.23482 11.6506 3.05782L11.0403 2.44754C10.8634 2.2704 10.5717 2.26522 10.3898 2.44738L9.96829 2.86887C9.83825 2.99893 9.63663 3.02439 9.47837 2.93077C9.09362 2.70323 8.67951 2.53133 8.24757 2.41985C8.06968 2.37396 7.9454 2.21352 7.9454 2.02981V1.43497C7.9454 1.18127 7.73896 0.974858 7.48526 0.974858H6.62233C6.36863 0.974858 6.16219 1.18127 6.16219 1.43497V2.02975C6.16219 2.21347 6.03791 2.3739 5.86002 2.4198C5.42808 2.53127 5.01398 2.70317 4.62922 2.93072C4.47089 3.02431 4.26934 2.99885 4.13931 2.86881L3.718 2.44748C3.53635 2.26562 3.24463 2.26984 3.06746 2.4473L2.45713 3.05761C2.28037 3.23415 2.27446 3.52588 2.45697 3.70817L2.87846 4.12966C3.00849 4.25969 3.03395 4.46127 2.94036 4.61955C2.71282 5.00428 2.54094 5.41838 2.42947 5.85035C2.38355 6.02824 2.22311 6.1525 2.03942 6.1525H1.44464C1.19094 6.15252 0.984501 6.35893 0.984501 6.61263V7.47559C0.984501 7.72929 1.19094 7.9357 1.44464 7.9357H2.0394C2.22311 7.9357 2.38352 8.05999 2.42944 8.23785C2.54092 8.66981 2.71282 9.08392 2.94033 9.46865C3.03392 9.62693 3.00846 9.8285 2.87843 9.95854L2.4571 10.3799C2.27497 10.5618 2.27972 10.8534 2.45694 11.0304L3.06722 11.6407C3.24412 11.8178 3.53587 11.823 3.71779 11.6409L4.13925 11.2194C4.23507 11.1236 4.43442 11.0423 4.6292 11.1575Z" fill="#131313"/>
<path d="M7.05343 10.0358C5.4038 10.0358 4.06177 8.69372 4.06177 7.04412C4.06177 5.39452 5.4038 4.05246 7.05343 4.05246C8.70306 4.05246 10.0451 5.39452 10.0451 7.04412C10.0451 8.69372 8.70306 10.0358 7.05343 10.0358ZM7.05343 4.85811C5.84804 4.85811 4.86742 5.83875 4.86742 7.04412C4.86742 8.24948 5.84806 9.23012 7.05343 9.23012C8.25879 9.23012 9.23943 8.24948 9.23943 7.04412C9.23943 5.83875 8.25882 4.85811 7.05343 4.85811Z" fill="#131313"/>
</svg>
