<svg width="25" height="24" viewBox="0 0 25 24" fill="none" xmlns="http://www.w3.org/2000/svg">
<path d="M11.462 19.039C9.69867 11.1592 16.8165 8.51264 20.5819 8.30598L21.8218 11.13L18.6533 14.574L19.1354 18.7757L17.6201 21.0487L16.1736 20.6355L11.462 19.039Z" fill="#D7D9E6"/>
<path d="M10.5737 4.02172C11.3397 2.46999 13.5524 2.46999 14.3184 4.02172L15.6687 6.75735C15.9726 7.37299 16.5597 7.7999 17.239 7.8992L20.2622 8.34107C21.9741 8.5913 22.6565 10.6957 21.417 11.9029L19.2328 14.0303C18.7403 14.51 18.5155 15.2014 18.6317 15.879L19.1468 18.8821C19.4393 20.5879 17.6488 21.8887 16.117 21.0831L13.4179 19.6637C12.8095 19.3438 12.0826 19.3438 11.4742 19.6637L8.77513 21.0831C7.24332 21.8887 5.45277 20.5879 5.74533 18.8821L6.2604 15.879C6.37661 15.2014 6.15182 14.51 5.65931 14.0303L3.47505 11.9029C2.23563 10.6957 2.91795 8.5913 4.62992 8.34107L7.65306 7.8992C8.33239 7.7999 8.9195 7.37299 9.22339 6.75735L10.5737 4.02172Z" stroke="black" stroke-width="1.044" stroke-linecap="round" stroke-linejoin="round"/>
</svg>
