<svg width="20" height="20" viewBox="0 0 20 20" fill="none" xmlns="http://www.w3.org/2000/svg">
<path fill-rule="evenodd" clip-rule="evenodd" d="M10 -3.05176e-05C9.58579 -3.05176e-05 9.25 0.335756 9.25 0.74997V9.24997H0.75C0.335786 9.24997 0 9.58576 0 9.99997C0 10.4142 0.335787 10.75 0.75 10.75H9.25V19.25C9.25 19.6642 9.58579 20 10 20C10.4142 20 10.75 19.6642 10.75 19.25V10.75H19.25C19.6642 10.75 20 10.4142 20 9.99997C20 9.58576 19.6642 9.24997 19.25 9.24997H10.75V0.74997C10.75 0.335756 10.4142 -3.05176e-05 10 -3.05176e-05Z" fill="white"/>
</svg>
