<svg width="18" height="20" viewBox="0 0 18 20" fill="none" xmlns="http://www.w3.org/2000/svg">
<path fill-rule="evenodd" clip-rule="evenodd" d="M9 8.49997C10.933 8.49997 12.5 6.93297 12.5 4.99997C12.5 3.06697 10.933 1.49997 9 1.49997C7.067 1.49997 5.5 3.06697 5.5 4.99997C5.5 6.93297 7.067 8.49997 9 8.49997ZM9 9.99997C11.7614 9.99997 14 7.76139 14 4.99997C14 2.23855 11.7614 -3.05176e-05 9 -3.05176e-05C6.23858 -3.05176e-05 4 2.23855 4 4.99997C4 7.76139 6.23858 9.99997 9 9.99997Z" fill="black"/>
<path fill-rule="evenodd" clip-rule="evenodd" d="M6 13.75C3.65279 13.75 1.75 15.6528 1.75 18V19C1.75 19.4142 1.41421 19.75 1 19.75C0.585786 19.75 0.25 19.4142 0.25 19V18C0.25 14.8243 2.82436 12.25 6 12.25H12C15.1756 12.25 17.75 14.8243 17.75 18V19C17.75 19.4142 17.4142 19.75 17 19.75C16.5858 19.75 16.25 19.4142 16.25 19V18C16.25 15.6528 14.3472 13.75 12 13.75H6Z" fill="black"/>
</svg>
