<svg width="28" height="29" viewBox="0 0 28 29" fill="none" xmlns="http://www.w3.org/2000/svg">
<path fill-rule="evenodd" clip-rule="evenodd" d="M14.0765 0.488861C21.6825 0.488861 27.851 6.65742 27.851 14.2634C27.851 21.8695 21.6825 28.038 14.0765 28.038C6.47046 28.038 0.301895 21.8695 0.301895 14.2634C0.301895 6.65742 6.47046 0.488861 14.0765 0.488861ZM11.092 11.5921C8.33229 11.8468 7.38172 12.9169 2.43512 12.9815C3.07362 7.11661 8.0429 2.55018 14.0777 2.55018C20.1627 2.55018 25.1656 7.19313 25.7359 13.1288C20.8539 13.0702 19.8471 12.0347 17.2009 11.7537C17.7533 12.44 18.0833 13.3117 18.0833 14.2623C18.0833 15.2631 17.7162 16.1766 17.1112 16.8785C19.8218 16.6119 20.7963 15.556 25.7252 15.4951C25.1465 21.023 20.7222 25.4076 15.1754 25.924C15.2316 21.0551 16.2575 20.0327 16.5457 17.4177C15.8653 17.951 15.008 18.269 14.0765 18.269C13.059 18.269 12.1311 17.89 11.4244 17.2646C11.6887 19.9908 12.7505 20.9593 12.8103 25.9071C7.2943 25.3141 2.92408 20.8886 2.41473 15.3478C7.27042 15.4088 8.28576 16.4371 10.9127 16.7205C10.3854 16.0413 10.0698 15.1888 10.0698 14.2622C10.0698 13.2362 10.456 12.3 11.0909 11.5909L11.092 11.5921Z" fill="#623CE7"/>
<path fill-rule="evenodd" clip-rule="evenodd" d="M14.0785 11.5299C15.5887 11.5299 16.8131 12.7543 16.8131 14.2633C16.8131 15.7735 15.5887 16.9979 14.0785 16.9979C12.5683 16.9979 11.3451 15.7735 11.3451 14.2633C11.3451 12.7531 12.5695 11.5299 14.0785 11.5299ZM15.6018 14.2645C15.6018 13.4203 14.9215 12.7411 14.0785 12.7411C13.2343 12.7411 12.5552 13.4215 12.5552 14.2645C12.5552 15.1086 13.2355 15.7878 14.0785 15.7878C14.9227 15.7878 15.6018 15.1074 15.6018 14.2645Z" fill="#FF2F5E"/>
</svg>
